<svg xmlns="http://www.w3.org/2000/svg" xmlns:xlink="http://www.w3.org/1999/xlink" width="100" zoomAndPan="magnify" viewBox="0 0 75 74.999997" height="100" preserveAspectRatio="xMidYMid meet" version="1.0"><defs><clipPath id="74ef3fe01a"><path d="M 6.753906 6.753906 L 68.253906 6.753906 L 68.253906 68.253906 L 6.753906 68.253906 Z M 6.753906 6.753906 " clip-rule="nonzero"/></clipPath></defs><g clip-path="url(#74ef3fe01a)"><path fill="#ffa726" d="M 37.503906 68.253906 C 54.4375 68.253906 68.253906 54.4375 68.253906 37.503906 C 68.253906 20.566406 54.4375 6.753906 37.503906 6.753906 C 20.566406 6.753906 6.753906 20.566406 6.753906 37.503906 C 6.753906 54.4375 20.566406 68.253906 37.503906 68.253906 " fill-opacity="1" fill-rule="evenodd"/></g><path fill="#c38326" d="M 36.863281 48.011719 L 33.246094 41.988281 C 28.582031 43.566406 22.503906 43.996094 22.066406 50.273438 C 22.011719 51.066406 21.882812 53.054688 21.824219 54.996094 L 55.457031 54.996094 C 55.402344 53.054688 55.269531 51.066406 55.214844 50.273438 C 54.777344 43.996094 48.699219 43.566406 44.035156 41.988281 L 40.421875 48.011719 L 36.863281 48.011719 " fill-opacity="1" fill-rule="evenodd"/><path fill="#c38326" d="M 45.394531 26.015625 L 45.269531 28.734375 C 46.34375 30.773438 45.246094 31.886719 44.679688 32.292969 C 44.414062 34.632812 43.070312 36.195312 41.375 36.972656 C 40.546875 37.355469 39.636719 37.546875 38.730469 37.546875 C 37.824219 37.546875 36.914062 37.355469 36.085938 36.972656 C 34.390625 36.195312 33.046875 34.632812 32.78125 32.292969 C 32.214844 31.886719 31.117188 30.773438 32.191406 28.734375 L 32.066406 26.015625 L 32.089844 25.832031 C 32.582031 24.140625 33.730469 22.917969 35.15625 22.171875 C 36.308594 21.570312 37.644531 21.277344 38.964844 21.296875 C 40.289062 21.316406 41.601562 21.652344 42.699219 22.296875 C 43.992188 23.058594 44.992188 24.246094 45.378906 25.859375 L 45.394531 26.015625 " fill-opacity="1" fill-rule="evenodd"/><path fill="#c38326" d="M 38.605469 44.199219 C 41.578125 44.199219 43.988281 46.199219 43.988281 47.941406 C 43.988281 49.683594 42.855469 54.359375 41.183594 54.996094 L 36.027344 54.996094 C 34.355469 54.359375 33.222656 49.683594 33.222656 47.941406 C 33.222656 46.199219 35.632812 44.199219 38.605469 44.199219 " fill-opacity="1" fill-rule="evenodd"/><path fill="#c38326" d="M 38.675781 44.238281 L 36.648438 46.378906 L 37.25 47.152344 L 35.691406 54.996094 L 39.957031 54.996094 L 41.3125 54.9375 L 40.292969 47.152344 L 40.707031 46.378906 L 38.675781 44.238281 " fill-opacity="1" fill-rule="evenodd"/><path fill="#c38326" d="M 43.183594 35.363281 L 43.410156 39.964844 L 38.53125 44.851562 L 33.945312 39.84375 L 34.15625 35.347656 L 43.183594 35.363281 " fill-opacity="1" fill-rule="evenodd"/><path fill="#c38326" d="M 38.351562 44.238281 L 36.648438 46.378906 L 37.25 47.152344 L 40.292969 47.152344 L 40.707031 46.378906 L 39.042969 44.238281 L 38.351562 44.238281 " fill-opacity="1" fill-rule="evenodd"/><path fill="#c38326" d="M 31.902344 41.988281 L 33.957031 39.570312 L 38.675781 44.238281 L 35.066406 48.273438 L 31.902344 41.988281 " fill-opacity="1" fill-rule="evenodd"/><path fill="#c38326" d="M 45.453125 41.988281 L 43.394531 39.570312 L 38.675781 44.238281 L 42.285156 48.273438 L 45.453125 41.988281 " fill-opacity="1" fill-rule="evenodd"/><path fill="#c38326" d="M 45.402344 29.511719 C 45.402344 29.511719 47.714844 32.902344 44.703125 34.296875 L 45.402344 29.511719 " fill-opacity="1" fill-rule="evenodd"/><path fill="#c38326" d="M 31.953125 29.511719 C 31.953125 29.511719 29.640625 32.902344 32.652344 34.296875 L 31.953125 29.511719 " fill-opacity="1" fill-rule="evenodd"/><path fill="#c38326" d="M 39.273438 23.066406 C 42.96875 23.066406 45.480469 25.96875 45.480469 30.914062 C 45.480469 34.136719 43.117188 40.746094 39.3125 40.746094 C 38.886719 40.746094 38.464844 40.746094 38.039062 40.746094 C 34.238281 40.746094 31.875 34.136719 31.875 30.914062 C 31.875 25.96875 34.386719 23.066406 38.082031 23.066406 C 38.480469 23.066406 38.875 23.066406 39.273438 23.066406 " fill-opacity="1" fill-rule="evenodd"/><path fill="#c38326" d="M 31.875 30.914062 C 31.875 30.914062 30.992188 24.875 32.007812 24.339844 C 31.816406 23.25 32.894531 22.277344 33.65625 21.984375 C 33.65625 21.984375 34.992188 20.40625 38.144531 20.085938 C 38.144531 20.085938 42.914062 19.175781 45.707031 23.558594 C 46.160156 24.269531 46.082031 24.109375 45.570312 24.761719 C 45.929688 26.65625 45.894531 29.179688 45.480469 31.039062 C 45.480469 31.039062 44.742188 26.339844 43.914062 25.722656 C 43.914062 25.722656 39.054688 28.34375 33.683594 25.269531 C 33.683594 25.269531 32.953125 25.808594 32.621094 27.128906 C 32.546875 27.425781 32.5 27.714844 32.449219 28.0625 C 32.300781 29.066406 32.105469 29.910156 31.875 30.914062 " fill-opacity="1" fill-rule="evenodd"/><path fill="#c38326" d="M 33.933594 54.996094 L 30.402344 48.285156 L 31.5 46.390625 L 29.519531 45.773438 L 29.894531 42.855469 L 32.0625 41.988281 L 32.164062 42.183594 L 38.640625 54.996094 L 33.933594 54.996094 " fill-opacity="1" fill-rule="evenodd"/><path fill="#c38326" d="M 43.351562 54.996094 L 46.882812 48.285156 L 45.78125 46.390625 L 47.761719 45.773438 L 47.386719 42.855469 L 45.21875 41.988281 L 45.117188 42.183594 L 38.640625 54.996094 L 43.351562 54.996094 " fill-opacity="1" fill-rule="evenodd"/><path fill="#c38326" d="M 28.3125 50.800781 L 29.070312 54.996094 L 27.832031 54.996094 Z M 28.3125 50.800781 " fill-opacity="1" fill-rule="evenodd"/><path fill="#c38326" d="M 48.972656 50.800781 L 48.210938 54.996094 L 49.449219 54.996094 Z M 48.972656 50.800781 " fill-opacity="1" fill-rule="evenodd"/><path fill="#6b809b" d="M 35.722656 48.011719 L 32.105469 41.988281 C 27.445312 43.566406 21.363281 43.996094 20.925781 50.273438 C 20.871094 51.066406 20.742188 53.054688 20.6875 54.996094 L 54.316406 54.996094 C 54.261719 53.054688 54.132812 51.066406 54.078125 50.273438 C 53.640625 43.996094 47.558594 43.566406 42.898438 41.988281 L 39.28125 48.011719 L 35.722656 48.011719 " fill-opacity="1" fill-rule="evenodd"/><path fill="#000000" d="M 44.253906 26.015625 L 44.128906 28.734375 C 45.203125 30.773438 44.105469 31.886719 43.542969 32.292969 C 43.273438 34.632812 41.933594 36.195312 40.238281 36.972656 C 39.40625 37.355469 38.496094 37.546875 37.589844 37.546875 C 36.683594 37.546875 35.773438 37.355469 34.945312 36.972656 C 33.25 36.195312 31.910156 34.632812 31.640625 32.292969 C 31.078125 31.886719 29.980469 30.773438 31.054688 28.734375 L 30.925781 26.015625 L 30.949219 25.832031 C 31.445312 24.140625 32.589844 22.917969 34.019531 22.171875 C 35.171875 21.570312 36.507812 21.277344 37.824219 21.296875 C 39.148438 21.316406 40.460938 21.652344 41.5625 22.296875 C 42.855469 23.058594 43.851562 24.246094 44.238281 25.859375 L 44.253906 26.015625 " fill-opacity="1" fill-rule="nonzero"/><path fill="#ffffff" d="M 37.46875 44.199219 C 40.441406 44.199219 42.851562 46.199219 42.851562 47.941406 C 42.851562 49.683594 41.714844 54.359375 40.042969 54.996094 L 34.890625 54.996094 C 33.21875 54.359375 32.082031 49.683594 32.082031 47.941406 C 32.082031 46.199219 34.492188 44.199219 37.46875 44.199219 " fill-opacity="1" fill-rule="evenodd"/><path fill="#00bcd4" d="M 37.539062 44.238281 L 35.507812 46.378906 L 36.113281 47.152344 L 34.550781 54.996094 L 38.816406 54.996094 L 40.175781 54.9375 L 39.152344 47.152344 L 39.570312 46.378906 L 37.539062 44.238281 " fill-opacity="1" fill-rule="evenodd"/><path fill="#d3aa96" d="M 42.046875 35.363281 L 42.269531 39.964844 L 37.390625 44.851562 L 32.808594 39.84375 L 33.015625 35.347656 L 42.046875 35.363281 " fill-opacity="1" fill-rule="evenodd"/><path fill="#02abc1" d="M 37.210938 44.238281 L 35.507812 46.378906 L 36.113281 47.152344 L 39.152344 47.152344 L 39.570312 46.378906 L 37.902344 44.238281 L 37.210938 44.238281 " fill-opacity="1" fill-rule="evenodd"/><path fill="#e8e8e8" d="M 30.765625 41.988281 L 32.820312 39.570312 L 37.539062 44.238281 L 33.929688 48.273438 L 30.765625 41.988281 " fill-opacity="1" fill-rule="evenodd"/><path fill="#e8e8e8" d="M 44.3125 41.988281 L 42.257812 39.570312 L 37.539062 44.238281 L 41.148438 48.273438 L 44.3125 41.988281 " fill-opacity="1" fill-rule="evenodd"/><path fill="#d3aa96" d="M 44.261719 29.511719 C 44.261719 29.511719 46.574219 32.902344 43.5625 34.296875 L 44.261719 29.511719 " fill-opacity="1" fill-rule="evenodd"/><path fill="#d3aa96" d="M 30.816406 29.511719 C 30.816406 29.511719 28.5 32.902344 31.511719 34.296875 L 30.816406 29.511719 " fill-opacity="1" fill-rule="evenodd"/><path fill="#ffceb4" d="M 38.132812 23.066406 C 41.828125 23.066406 44.34375 25.96875 44.34375 30.914062 C 44.34375 34.136719 41.976562 40.746094 38.175781 40.746094 C 37.75 40.746094 37.328125 40.746094 36.902344 40.746094 C 33.101562 40.746094 30.734375 34.136719 30.734375 30.914062 C 30.734375 25.96875 33.246094 23.066406 36.941406 23.066406 C 37.339844 23.066406 37.738281 23.066406 38.132812 23.066406 " fill-opacity="1" fill-rule="evenodd"/><path fill="#000000" d="M 30.734375 30.914062 C 30.734375 30.914062 29.855469 24.875 30.867188 24.339844 C 30.675781 23.25 31.753906 22.277344 32.519531 21.984375 C 32.519531 21.984375 33.855469 20.40625 37.007812 20.085938 C 37.007812 20.085938 41.773438 19.175781 44.566406 23.558594 C 45.019531 24.269531 44.945312 24.109375 44.433594 24.761719 C 44.792969 26.65625 44.757812 29.179688 44.339844 31.039062 C 44.339844 31.039062 43.605469 26.339844 42.777344 25.722656 C 42.777344 25.722656 37.914062 28.34375 32.542969 25.269531 C 32.542969 25.269531 31.8125 25.808594 31.484375 27.128906 C 31.40625 27.425781 31.359375 27.714844 31.308594 28.0625 C 31.164062 29.066406 30.96875 29.910156 30.734375 30.914062 " fill-opacity="1" fill-rule="evenodd"/><path fill="#4f6074" d="M 32.792969 54.996094 L 29.261719 48.285156 L 30.359375 46.390625 L 28.382812 45.773438 L 28.753906 42.855469 L 30.925781 41.988281 L 31.023438 42.183594 L 37.503906 54.996094 L 32.792969 54.996094 " fill-opacity="1" fill-rule="evenodd"/><path fill="#4f6074" d="M 42.210938 54.996094 L 45.742188 48.285156 L 44.644531 46.390625 L 46.621094 45.773438 L 46.25 42.855469 L 44.078125 41.988281 L 43.980469 42.183594 L 37.503906 54.996094 L 42.210938 54.996094 " fill-opacity="1" fill-rule="evenodd"/><path fill="#4f6074" d="M 27.171875 50.800781 L 27.929688 54.996094 L 26.691406 54.996094 Z M 27.171875 50.800781 " fill-opacity="1" fill-rule="evenodd"/><path fill="#4f6074" d="M 47.832031 50.800781 L 47.074219 54.996094 L 48.3125 54.996094 Z M 47.832031 50.800781 " fill-opacity="1" fill-rule="evenodd"/></svg>