<svg xmlns="http://www.w3.org/2000/svg" xmlns:xlink="http://www.w3.org/1999/xlink" width="100" zoomAndPan="magnify" viewBox="0 0 75 74.999997" height="100" preserveAspectRatio="xMidYMid meet" version="1.0"><defs><clipPath id="2210fa9f62"><path d="M 6.074219 3.390625 L 69.074219 3.390625 L 69.074219 71.640625 L 6.074219 71.640625 Z M 6.074219 3.390625 " clip-rule="nonzero"/></clipPath></defs><path fill="#fcaf17" d="M 45.285156 11.15625 C 45.546875 11.15625 45.761719 11.371094 45.761719 11.636719 C 45.761719 11.898438 45.546875 12.113281 45.285156 12.113281 C 45.019531 12.113281 44.804688 11.898438 44.804688 11.636719 C 44.804688 11.371094 45.019531 11.15625 45.285156 11.15625 Z M 45.285156 14.457031 C 46.84375 14.457031 48.109375 13.191406 48.109375 11.636719 C 48.109375 10.078125 46.84375 8.8125 45.285156 8.8125 C 43.722656 8.8125 42.457031 10.078125 42.457031 11.636719 C 42.457031 13.191406 43.722656 14.457031 45.285156 14.457031 " fill-opacity="1" fill-rule="nonzero"/><path fill="#fcaf17" d="M 35.246094 38.402344 C 35.210938 39.09375 35.121094 39.714844 34.976562 40.261719 C 34.832031 40.808594 34.644531 41.257812 34.410156 41.609375 C 34.179688 41.960938 33.921875 42.167969 33.640625 42.226562 C 33.511719 42.257812 33.375 42.230469 33.230469 42.152344 C 33.082031 42.078125 32.941406 41.917969 32.800781 41.675781 C 32.664062 41.4375 32.53125 41.101562 32.40625 40.667969 C 32.28125 40.234375 32.175781 39.683594 32.089844 39.007812 C 31.992188 38.246094 31.957031 37.558594 31.992188 36.9375 C 32.027344 36.316406 32.09375 35.769531 32.199219 35.292969 C 32.300781 34.820312 32.421875 34.414062 32.554688 34.082031 C 32.691406 33.746094 32.8125 33.484375 32.921875 33.296875 C 32.9375 33.335938 32.949219 33.375 32.957031 33.40625 C 32.964844 33.4375 32.976562 33.464844 32.996094 33.484375 C 33.011719 33.515625 33.03125 33.546875 33.050781 33.574219 C 33.070312 33.597656 33.089844 33.625 33.105469 33.652344 C 33.125 33.675781 33.144531 33.695312 33.167969 33.703125 C 33.230469 33.511719 33.304688 33.351562 33.390625 33.234375 C 33.472656 33.113281 33.546875 33.023438 33.617188 32.964844 C 33.699219 32.894531 33.789062 32.84375 33.878906 32.816406 C 33.964844 32.796875 34.054688 32.839844 34.148438 32.949219 C 34.238281 33.058594 34.328125 33.203125 34.414062 33.390625 C 34.5 33.574219 34.582031 33.789062 34.660156 34.039062 C 34.742188 34.289062 34.816406 34.542969 34.878906 34.800781 C 34.941406 35.058594 35 35.3125 35.046875 35.566406 C 35.09375 35.820312 35.132812 36.042969 35.160156 36.242188 C 35.253906 36.988281 35.285156 37.707031 35.246094 38.402344 Z M 35.820312 34.53125 C 35.671875 33.996094 35.5 33.546875 35.3125 33.183594 C 35.121094 32.816406 34.921875 32.542969 34.714844 32.363281 C 34.503906 32.183594 34.296875 32.117188 34.085938 32.160156 C 34.007812 32.179688 33.9375 32.199219 33.875 32.21875 C 33.8125 32.238281 33.753906 32.261719 33.707031 32.289062 C 33.648438 32.226562 33.578125 32.179688 33.492188 32.148438 C 33.40625 32.121094 33.304688 32.117188 33.191406 32.140625 C 32.902344 32.203125 32.605469 32.429688 32.296875 32.816406 C 31.988281 33.203125 31.722656 33.714844 31.496094 34.351562 C 31.269531 34.988281 31.105469 35.730469 31.007812 36.574219 C 30.910156 37.417969 30.921875 38.332031 31.046875 39.316406 C 31.128906 39.9375 31.242188 40.457031 31.386719 40.878906 C 31.53125 41.296875 31.695312 41.640625 31.875 41.90625 C 32.050781 42.171875 32.238281 42.375 32.429688 42.515625 C 32.625 42.652344 32.804688 42.75 32.976562 42.808594 C 33.144531 42.863281 33.300781 42.890625 33.441406 42.886719 C 33.578125 42.882812 33.679688 42.875 33.746094 42.859375 C 34.070312 42.789062 34.363281 42.644531 34.628906 42.417969 C 34.890625 42.195312 35.125 41.917969 35.328125 41.589844 C 35.53125 41.257812 35.699219 40.886719 35.835938 40.46875 C 35.96875 40.050781 36.074219 39.613281 36.140625 39.15625 C 36.210938 38.695312 36.25 38.226562 36.257812 37.746094 C 36.265625 37.265625 36.238281 36.796875 36.175781 36.335938 C 36.089844 35.667969 35.972656 35.066406 35.820312 34.53125 " fill-opacity="1" fill-rule="nonzero"/><path fill="#fcaf17" d="M 47.953125 34.625 C 48 34.367188 48.066406 34.148438 48.144531 33.960938 C 48.226562 33.773438 48.316406 33.625 48.414062 33.511719 C 48.515625 33.402344 48.609375 33.335938 48.695312 33.316406 C 48.773438 33.300781 48.84375 33.316406 48.898438 33.367188 C 48.957031 33.421875 48.992188 33.515625 49.007812 33.65625 C 49.019531 33.789062 48.984375 33.957031 48.902344 34.164062 C 48.820312 34.371094 48.648438 34.625 48.390625 34.929688 C 48.308594 35.03125 48.222656 35.125 48.136719 35.214844 C 48.050781 35.308594 47.972656 35.394531 47.902344 35.476562 C 47.886719 35.164062 47.902344 34.878906 47.953125 34.625 Z M 44.226562 36.761719 C 44.132812 36.941406 44.03125 37.117188 43.914062 37.292969 C 43.796875 37.46875 43.671875 37.625 43.539062 37.757812 C 43.40625 37.894531 43.277344 37.972656 43.148438 38 C 42.972656 38.039062 42.820312 37.996094 42.6875 37.863281 C 42.554688 37.738281 42.457031 37.496094 42.394531 37.148438 C 42.363281 36.929688 42.367188 36.675781 42.40625 36.378906 C 42.449219 36.082031 42.519531 35.800781 42.617188 35.527344 C 42.714844 35.253906 42.832031 35.011719 42.96875 34.804688 C 43.105469 34.601562 43.253906 34.476562 43.421875 34.441406 C 43.535156 34.417969 43.636719 34.441406 43.71875 34.519531 C 43.804688 34.59375 43.875 34.6875 43.933594 34.800781 C 43.992188 34.910156 44.039062 35.019531 44.070312 35.128906 C 44.101562 35.242188 44.121094 35.316406 44.132812 35.359375 C 44.148438 35.445312 44.179688 35.507812 44.214844 35.539062 C 44.253906 35.574219 44.308594 35.5625 44.378906 35.511719 C 44.390625 35.5 44.402344 35.488281 44.410156 35.480469 C 44.421875 35.46875 44.433594 35.460938 44.445312 35.449219 C 44.441406 35.601562 44.441406 35.75 44.445312 35.890625 C 44.449219 36.03125 44.453125 36.175781 44.453125 36.316406 C 44.394531 36.433594 44.320312 36.582031 44.226562 36.761719 Z M 53.695312 32.492188 C 53.605469 32.449219 53.496094 32.441406 53.375 32.46875 C 53.273438 32.488281 53.203125 32.511719 53.15625 32.539062 C 53.113281 32.5625 53.035156 32.585938 52.917969 32.613281 C 52.839844 32.628906 52.78125 32.632812 52.742188 32.621094 C 52.699219 32.613281 52.667969 32.601562 52.644531 32.59375 C 52.699219 32.460938 52.722656 32.320312 52.722656 32.167969 C 52.71875 32.019531 52.699219 31.898438 52.664062 31.808594 C 52.621094 31.675781 52.542969 31.554688 52.433594 31.441406 C 52.320312 31.332031 52.164062 31.296875 51.964844 31.339844 C 51.855469 31.363281 51.753906 31.4375 51.660156 31.5625 C 51.566406 31.691406 51.488281 31.832031 51.425781 31.992188 C 51.363281 32.152344 51.320312 32.316406 51.296875 32.480469 C 51.269531 32.644531 51.277344 32.769531 51.3125 32.859375 C 51.347656 32.964844 51.386719 33.03125 51.421875 33.054688 C 51.457031 33.082031 51.523438 33.121094 51.617188 33.175781 C 51.59375 33.265625 51.550781 33.40625 51.496094 33.605469 C 51.441406 33.800781 51.382812 34.023438 51.320312 34.269531 C 51.285156 34.410156 51.246094 34.5625 51.207031 34.710938 C 51.171875 34.773438 51.136719 34.835938 51.097656 34.90625 C 50.929688 35.191406 50.742188 35.46875 50.53125 35.746094 C 50.324219 36.019531 50.105469 36.261719 49.871094 36.476562 C 49.640625 36.6875 49.402344 36.820312 49.15625 36.875 C 49.042969 36.898438 48.925781 36.910156 48.804688 36.898438 C 48.6875 36.890625 48.578125 36.859375 48.472656 36.804688 C 48.371094 36.746094 48.277344 36.664062 48.191406 36.554688 C 48.109375 36.445312 48.042969 36.300781 47.996094 36.121094 C 48.085938 36.019531 48.195312 35.90625 48.316406 35.777344 C 48.441406 35.648438 48.570312 35.511719 48.703125 35.371094 C 48.824219 35.238281 48.953125 35.09375 49.089844 34.9375 C 49.222656 34.777344 49.347656 34.609375 49.457031 34.425781 C 49.570312 34.246094 49.65625 34.046875 49.71875 33.839844 C 49.785156 33.628906 49.800781 33.410156 49.773438 33.183594 C 49.746094 32.980469 49.65625 32.820312 49.503906 32.710938 C 49.351562 32.601562 49.136719 32.578125 48.863281 32.636719 C 48.574219 32.699219 48.308594 32.851562 48.0625 33.09375 C 47.820312 33.335938 47.613281 33.617188 47.445312 33.9375 C 47.277344 34.261719 47.152344 34.601562 47.070312 34.964844 C 47 35.265625 46.980469 35.539062 46.996094 35.796875 C 46.902344 35.964844 46.808594 36.132812 46.703125 36.3125 C 46.578125 36.527344 46.449219 36.730469 46.316406 36.917969 C 46.183594 37.105469 46.054688 37.265625 45.925781 37.398438 C 45.800781 37.53125 45.6875 37.605469 45.589844 37.628906 C 45.5 37.648438 45.414062 37.625 45.324219 37.5625 C 45.234375 37.5 45.175781 37.375 45.140625 37.195312 C 45.125 37.070312 45.109375 36.90625 45.097656 36.695312 C 45.085938 36.488281 45.074219 36.269531 45.058594 36.039062 C 45.21875 35.628906 45.355469 35.199219 45.476562 34.757812 C 45.59375 34.3125 45.6875 33.875 45.757812 33.441406 C 45.832031 33.007812 45.875 32.59375 45.890625 32.199219 C 45.90625 31.804688 45.886719 31.449219 45.832031 31.128906 C 45.789062 30.867188 45.742188 30.664062 45.695312 30.515625 C 45.648438 30.367188 45.597656 30.257812 45.542969 30.191406 C 45.484375 30.125 45.425781 30.089844 45.363281 30.085938 C 45.304688 30.078125 45.238281 30.085938 45.164062 30.101562 C 45.105469 30.113281 45.046875 30.136719 44.988281 30.171875 C 44.933594 30.199219 44.878906 30.234375 44.816406 30.277344 C 44.761719 30.320312 44.703125 30.378906 44.640625 30.449219 C 44.609375 30.855469 44.585938 31.242188 44.566406 31.609375 C 44.546875 31.972656 44.53125 32.296875 44.519531 32.578125 C 44.507812 32.902344 44.492188 33.207031 44.480469 33.488281 C 44.476562 33.679688 44.472656 33.878906 44.476562 34.089844 C 44.476562 34.300781 44.472656 34.515625 44.46875 34.734375 C 44.425781 34.636719 44.367188 34.539062 44.296875 34.433594 C 44.222656 34.328125 44.140625 34.234375 44.046875 34.152344 C 43.957031 34.070312 43.851562 34.011719 43.738281 33.972656 C 43.621094 33.933594 43.503906 33.925781 43.382812 33.953125 C 43.101562 34.015625 42.839844 34.15625 42.597656 34.378906 C 42.355469 34.601562 42.15625 34.875 41.996094 35.199219 C 41.835938 35.523438 41.726562 35.886719 41.664062 36.292969 C 41.628906 36.539062 41.621094 36.789062 41.632812 37.039062 C 41.628906 37.042969 41.628906 37.046875 41.628906 37.050781 C 41.53125 37.242188 41.429688 37.4375 41.3125 37.640625 C 41.199219 37.839844 41.082031 38.027344 40.957031 38.203125 C 40.832031 38.375 40.707031 38.523438 40.578125 38.644531 C 40.449219 38.769531 40.324219 38.84375 40.203125 38.867188 C 40.039062 38.90625 39.929688 38.898438 39.882812 38.847656 C 39.832031 38.800781 39.792969 38.730469 39.757812 38.640625 C 39.710938 38.496094 39.71875 38.328125 39.78125 38.125 C 39.84375 37.925781 39.90625 37.738281 39.976562 37.574219 C 40.09375 37.308594 40.1875 37.066406 40.257812 36.847656 C 40.332031 36.628906 40.335938 36.429688 40.277344 36.253906 C 40.25 36.171875 40.214844 36.078125 40.164062 35.980469 C 40.117188 35.882812 40.058594 35.792969 39.988281 35.714844 C 39.917969 35.636719 39.835938 35.574219 39.746094 35.53125 C 39.652344 35.488281 39.546875 35.476562 39.421875 35.503906 C 39.320312 35.527344 39.25 35.550781 39.207031 35.574219 C 39.164062 35.597656 39.082031 35.625 38.96875 35.648438 C 38.886719 35.664062 38.828125 35.667969 38.789062 35.660156 C 38.75 35.648438 38.71875 35.640625 38.691406 35.628906 C 38.746094 35.496094 38.773438 35.355469 38.769531 35.207031 C 38.765625 35.054688 38.746094 34.9375 38.710938 34.847656 C 38.667969 34.710938 38.589844 34.589844 38.480469 34.480469 C 38.367188 34.367188 38.210938 34.335938 38.011719 34.378906 C 37.902344 34.402344 37.800781 34.476562 37.710938 34.601562 C 37.617188 34.726562 37.539062 34.871094 37.476562 35.03125 C 37.410156 35.191406 37.367188 35.355469 37.34375 35.515625 C 37.320312 35.679688 37.324219 35.808594 37.359375 35.898438 C 37.398438 36.003906 37.433594 36.066406 37.46875 36.09375 C 37.503906 36.121094 37.570312 36.160156 37.664062 36.214844 C 37.640625 36.304688 37.601562 36.445312 37.542969 36.640625 C 37.488281 36.839844 37.429688 37.058594 37.367188 37.308594 C 37.304688 37.554688 37.238281 37.816406 37.171875 38.089844 C 37.101562 38.363281 37.039062 38.617188 36.980469 38.851562 C 36.921875 39.089844 36.871094 39.289062 36.832031 39.457031 C 36.789062 39.625 36.761719 39.730469 36.746094 39.78125 C 36.722656 39.875 36.726562 39.949219 36.75 40.003906 C 36.777344 40.058594 36.816406 40.089844 36.867188 40.097656 C 36.917969 40.105469 36.972656 40.089844 37.027344 40.050781 C 37.082031 40.011719 37.128906 39.949219 37.160156 39.859375 C 37.175781 39.824219 37.210938 39.722656 37.269531 39.558594 C 37.328125 39.390625 37.398438 39.1875 37.484375 38.949219 C 37.566406 38.707031 37.652344 38.449219 37.75 38.171875 C 37.84375 37.894531 37.933594 37.632812 38.015625 37.378906 C 38.101562 37.128906 38.175781 36.910156 38.242188 36.722656 C 38.304688 36.535156 38.347656 36.414062 38.363281 36.355469 C 38.425781 36.359375 38.492188 36.367188 38.5625 36.382812 C 38.632812 36.394531 38.714844 36.390625 38.808594 36.371094 C 38.875 36.359375 38.921875 36.34375 38.953125 36.335938 C 38.984375 36.324219 39.011719 36.316406 39.027344 36.3125 C 39.046875 36.308594 39.0625 36.304688 39.082031 36.296875 C 39.097656 36.289062 39.128906 36.28125 39.171875 36.269531 C 39.234375 36.257812 39.289062 36.273438 39.328125 36.316406 C 39.367188 36.359375 39.394531 36.414062 39.410156 36.480469 C 39.429688 36.578125 39.421875 36.710938 39.375 36.875 C 39.332031 37.039062 39.273438 37.238281 39.195312 37.472656 C 39.167969 37.585938 39.132812 37.699219 39.097656 37.816406 C 39.058594 37.933594 39.023438 38.050781 38.992188 38.167969 C 38.960938 38.28125 38.9375 38.394531 38.917969 38.5 C 38.898438 38.605469 38.894531 38.703125 38.90625 38.789062 C 38.921875 38.898438 38.960938 39.011719 39.023438 39.132812 C 39.082031 39.25 39.160156 39.351562 39.257812 39.441406 C 39.355469 39.527344 39.476562 39.597656 39.613281 39.640625 C 39.75 39.6875 39.914062 39.6875 40.101562 39.648438 C 40.28125 39.609375 40.457031 39.511719 40.632812 39.363281 C 40.808594 39.210938 40.976562 39.03125 41.136719 38.816406 C 41.296875 38.605469 41.445312 38.378906 41.582031 38.132812 C 41.640625 38.023438 41.6875 37.925781 41.742188 37.816406 C 41.78125 37.960938 41.828125 38.089844 41.890625 38.195312 C 41.988281 38.371094 42.09375 38.507812 42.210938 38.601562 C 42.324219 38.695312 42.445312 38.757812 42.570312 38.78125 C 42.695312 38.808594 42.808594 38.808594 42.910156 38.789062 C 43.191406 38.726562 43.464844 38.5625 43.726562 38.300781 C 43.988281 38.035156 44.234375 37.703125 44.464844 37.296875 C 44.476562 37.421875 44.484375 37.511719 44.488281 37.5625 C 44.507812 37.679688 44.546875 37.792969 44.613281 37.898438 C 44.675781 38.003906 44.753906 38.097656 44.847656 38.171875 C 44.941406 38.25 45.039062 38.308594 45.140625 38.347656 C 45.242188 38.386719 45.34375 38.394531 45.445312 38.371094 C 45.582031 38.339844 45.726562 38.261719 45.875 38.136719 C 46.023438 38.011719 46.175781 37.855469 46.328125 37.671875 C 46.480469 37.488281 46.625 37.28125 46.769531 37.054688 C 46.890625 36.863281 47 36.667969 47.109375 36.472656 C 47.15625 36.613281 47.210938 36.742188 47.28125 36.855469 C 47.425781 37.085938 47.589844 37.265625 47.777344 37.390625 C 47.960938 37.515625 48.152344 37.59375 48.355469 37.628906 C 48.554688 37.664062 48.734375 37.667969 48.890625 37.632812 C 49.195312 37.566406 49.488281 37.425781 49.777344 37.214844 C 50.066406 37 50.339844 36.742188 50.59375 36.441406 C 50.699219 36.320312 50.78125 36.175781 50.875 36.042969 C 50.84375 36.171875 50.808594 36.316406 50.78125 36.417969 C 50.738281 36.585938 50.710938 36.695312 50.699219 36.742188 C 50.675781 36.835938 50.675781 36.914062 50.703125 36.96875 C 50.730469 37.019531 50.769531 37.050781 50.820312 37.058594 C 50.871094 37.066406 50.925781 37.050781 50.980469 37.015625 C 51.035156 36.976562 51.078125 36.910156 51.113281 36.820312 C 51.128906 36.789062 51.164062 36.6875 51.222656 36.519531 C 51.28125 36.355469 51.351562 36.148438 51.433594 35.910156 C 51.515625 35.667969 51.605469 35.410156 51.699219 35.136719 C 51.792969 34.859375 51.882812 34.59375 51.96875 34.34375 C 52.054688 34.089844 52.128906 33.871094 52.191406 33.683594 C 52.257812 33.496094 52.296875 33.375 52.316406 33.320312 C 52.375 33.320312 52.441406 33.328125 52.515625 33.34375 C 52.585938 33.359375 52.667969 33.355469 52.761719 33.335938 C 52.824219 33.320312 52.875 33.308594 52.90625 33.296875 C 52.9375 33.285156 52.960938 33.28125 52.980469 33.277344 C 52.996094 33.273438 53.015625 33.265625 53.03125 33.257812 C 53.050781 33.25 53.078125 33.242188 53.121094 33.234375 C 53.1875 33.21875 53.238281 33.234375 53.28125 33.277344 C 53.320312 33.324219 53.347656 33.375 53.359375 33.441406 C 53.382812 33.542969 53.371094 33.675781 53.328125 33.835938 C 53.285156 34 53.226562 34.199219 53.148438 34.4375 C 53.121094 34.546875 53.085938 34.664062 53.046875 34.78125 C 53.007812 34.898438 52.972656 35.015625 52.945312 35.128906 C 52.914062 35.246094 52.886719 35.355469 52.871094 35.460938 C 52.851562 35.566406 52.847656 35.664062 52.859375 35.753906 C 52.875 35.863281 52.914062 35.976562 52.972656 36.09375 C 53.035156 36.214844 53.113281 36.316406 53.210938 36.402344 C 53.308594 36.492188 53.425781 36.558594 53.566406 36.601562 C 53.703125 36.648438 53.867188 36.652344 54.054688 36.609375 C 54.234375 36.570312 54.410156 36.476562 54.585938 36.324219 C 54.757812 36.175781 54.925781 35.992188 55.089844 35.78125 C 55.25 35.570312 55.398438 35.339844 55.53125 35.097656 C 55.667969 34.851562 55.789062 34.617188 55.894531 34.390625 C 56 34.164062 56.085938 33.960938 56.15625 33.78125 C 56.226562 33.601562 56.273438 33.46875 56.300781 33.386719 C 56.34375 33.265625 56.351562 33.175781 56.328125 33.113281 C 56.300781 33.050781 56.265625 33.011719 56.21875 33 C 56.167969 32.988281 56.117188 33 56.066406 33.035156 C 56.011719 33.066406 55.976562 33.117188 55.953125 33.183594 C 55.921875 33.25 55.875 33.355469 55.8125 33.507812 C 55.75 33.65625 55.671875 33.824219 55.578125 34.015625 C 55.484375 34.203125 55.378906 34.398438 55.265625 34.601562 C 55.152344 34.804688 55.03125 34.992188 54.90625 35.164062 C 54.785156 35.339844 54.660156 35.488281 54.53125 35.609375 C 54.402344 35.730469 54.277344 35.804688 54.15625 35.832031 C 53.988281 35.867188 53.882812 35.859375 53.832031 35.8125 C 53.785156 35.761719 53.742188 35.691406 53.707031 35.601562 C 53.664062 35.460938 53.671875 35.289062 53.730469 35.089844 C 53.792969 34.886719 53.859375 34.703125 53.929688 34.539062 C 54.042969 34.269531 54.136719 34.027344 54.210938 33.808594 C 54.285156 33.589844 54.289062 33.394531 54.226562 33.21875 C 54.203125 33.132812 54.164062 33.042969 54.117188 32.945312 C 54.070312 32.84375 54.011719 32.757812 53.941406 32.675781 C 53.871094 32.597656 53.789062 32.535156 53.695312 32.492188 " fill-opacity="1" fill-rule="nonzero"/><path fill="#fcaf17" d="M 49.605469 44.4375 C 49.601562 44.445312 49.597656 44.449219 49.59375 44.453125 C 49.578125 44.496094 49.574219 44.5 49.605469 44.4375 " fill-opacity="1" fill-rule="nonzero"/><path fill="#fcaf17" d="M 59.898438 28.335938 C 59.800781 28.339844 59.710938 28.355469 59.625 28.375 C 59.539062 28.40625 59.445312 28.441406 59.351562 28.480469 C 59.273438 28.519531 59.195312 28.570312 59.109375 28.628906 C 59.023438 28.691406 58.949219 28.761719 58.882812 28.84375 C 58.902344 28.871094 58.914062 28.910156 58.921875 28.960938 C 58.925781 29.015625 58.925781 29.0625 58.921875 29.105469 C 58.914062 29.167969 58.910156 29.230469 58.902344 29.292969 C 58.75 30.140625 58.613281 30.894531 58.496094 31.554688 C 58.378906 32.214844 58.277344 32.792969 58.191406 33.285156 C 58.105469 33.78125 58.03125 34.203125 57.96875 34.554688 C 57.90625 34.902344 57.855469 35.195312 57.8125 35.433594 C 57.714844 35.984375 57.652344 36.328125 57.625 36.472656 C 57.609375 36.558594 57.660156 36.597656 57.769531 36.589844 C 57.878906 36.578125 58.003906 36.542969 58.144531 36.480469 C 58.289062 36.414062 58.421875 36.332031 58.550781 36.230469 C 58.675781 36.125 58.75 36.027344 58.773438 35.929688 L 60.417969 28.441406 C 60.335938 28.394531 60.25 28.363281 60.15625 28.351562 C 60.0625 28.335938 59.976562 28.332031 59.898438 28.335938 " fill-opacity="1" fill-rule="nonzero"/><path fill="#fcaf17" d="M 58.578125 37.367188 C 58.433594 37.296875 58.25 37.289062 58.023438 37.332031 C 57.898438 37.355469 57.777344 37.394531 57.65625 37.441406 C 57.539062 37.492188 57.429688 37.554688 57.332031 37.628906 C 57.234375 37.703125 57.152344 37.789062 57.09375 37.882812 C 57.03125 37.980469 57 38.082031 56.996094 38.199219 C 56.988281 38.375 57.050781 38.5 57.183594 38.570312 C 57.320312 38.644531 57.480469 38.675781 57.664062 38.667969 C 57.761719 38.660156 57.871094 38.632812 57.996094 38.585938 C 58.121094 38.535156 58.242188 38.46875 58.355469 38.382812 C 58.46875 38.300781 58.570312 38.203125 58.652344 38.097656 C 58.734375 37.996094 58.777344 37.886719 58.78125 37.769531 C 58.789062 37.570312 58.722656 37.433594 58.578125 37.367188 " fill-opacity="1" fill-rule="nonzero"/><g clip-path="url(#2210fa9f62)"><path fill="#fcaf17" d="M 23.851562 49.644531 L 26.128906 52.03125 C 26.144531 52.050781 26.167969 52.0625 26.183594 52.082031 L 26.183594 66.125 C 26.183594 66.449219 26.449219 66.710938 26.773438 66.710938 L 63.792969 66.710938 C 64.117188 66.710938 64.378906 66.449219 64.378906 66.125 L 64.378906 19.746094 C 64.378906 19.425781 64.117188 19.164062 63.792969 19.164062 L 58.050781 19.164062 C 58.226562 18.738281 58.324219 18.273438 58.324219 17.785156 C 58.324219 17.558594 58.300781 17.332031 58.257812 17.113281 C 58.238281 17.019531 58.210938 16.933594 58.1875 16.84375 C 58.164062 16.753906 58.148438 16.664062 58.117188 16.578125 L 66.714844 16.578125 L 66.714844 69.296875 L 23.851562 69.296875 Z M 23.851562 16.578125 L 32.453125 16.578125 C 32.421875 16.664062 32.40625 16.753906 32.382812 16.84375 C 32.355469 16.933594 32.328125 17.019531 32.3125 17.109375 C 32.269531 17.332031 32.242188 17.558594 32.242188 17.785156 C 32.242188 18.273438 32.34375 18.738281 32.515625 19.164062 L 26.773438 19.164062 C 26.449219 19.164062 26.183594 19.425781 26.183594 19.746094 L 26.183594 40.820312 L 23.851562 38.371094 Z M 31.632812 51.019531 C 31.660156 50.984375 31.683594 50.945312 31.707031 50.90625 C 31.835938 50.726562 31.953125 50.542969 32.050781 50.351562 C 32.054688 50.339844 32.0625 50.335938 32.066406 50.328125 L 33.589844 54.222656 L 29.765625 52.511719 C 29.769531 52.511719 29.773438 52.507812 29.777344 52.507812 C 29.839844 52.476562 29.898438 52.4375 29.960938 52.40625 C 30.082031 52.347656 30.199219 52.285156 30.316406 52.214844 C 30.363281 52.183594 30.414062 52.164062 30.460938 52.132812 C 30.476562 52.121094 30.492188 52.105469 30.507812 52.097656 C 30.523438 52.085938 30.539062 52.070312 30.554688 52.058594 C 30.746094 51.925781 30.933594 51.78125 31.105469 51.617188 C 31.300781 51.433594 31.476562 51.230469 31.632812 51.019531 Z M 63.207031 50.234375 L 54.761719 50.234375 C 54.4375 50.234375 54.175781 50.5 54.175781 50.820312 L 54.175781 59.25 L 27.359375 59.25 L 27.359375 52.746094 C 27.363281 52.746094 27.367188 52.746094 27.371094 52.746094 C 27.421875 52.761719 27.464844 52.777344 27.515625 52.789062 L 34.414062 55.878906 C 34.492188 55.914062 34.574219 55.929688 34.65625 55.929688 C 34.664062 55.929688 34.675781 55.929688 34.679688 55.929688 C 35.003906 55.929688 35.265625 55.667969 35.265625 55.34375 C 35.265625 55.210938 35.222656 55.089844 35.148438 54.992188 L 32.4375 48.058594 C 32.34375 47.53125 32.128906 47.054688 31.769531 46.675781 L 27.359375 42.050781 L 27.359375 20.332031 L 33.285156 20.332031 C 33.953125 21.019531 34.878906 21.449219 35.910156 21.449219 L 54.65625 21.449219 C 55.6875 21.449219 56.613281 21.019531 57.28125 20.332031 L 63.207031 20.332031 Z M 55.351562 58.421875 L 55.351562 51.40625 L 62.375 51.40625 Z M 63.207031 52.234375 L 63.207031 59.25 L 56.179688 59.25 Z M 27.359375 64.609375 L 59.277344 64.609375 C 59.605469 64.609375 59.867188 64.347656 59.867188 64.023438 C 59.867188 63.699219 59.605469 63.4375 59.277344 63.4375 L 27.359375 63.4375 L 27.359375 62.742188 L 39.144531 62.742188 C 39.46875 62.742188 39.730469 62.480469 39.730469 62.15625 C 39.730469 61.835938 39.46875 61.574219 39.144531 61.574219 L 27.359375 61.574219 L 27.359375 60.421875 L 63.207031 60.421875 L 63.207031 65.539062 L 27.359375 65.539062 Z M 40.09375 15.011719 C 40.199219 14.832031 40.203125 14.613281 40.105469 14.433594 C 39.613281 13.527344 39.363281 12.589844 39.363281 11.636719 C 39.363281 8.378906 42.019531 5.730469 45.285156 5.730469 C 48.546875 5.730469 51.203125 8.378906 51.203125 11.636719 C 51.203125 12.589844 50.953125 13.53125 50.464844 14.433594 C 50.363281 14.613281 50.367188 14.832031 50.472656 15.011719 C 50.578125 15.1875 50.769531 15.296875 50.980469 15.296875 L 54.65625 15.296875 C 55.488281 15.296875 56.222656 15.707031 56.675781 16.335938 C 56.820312 16.535156 56.925781 16.753906 57.003906 16.980469 C 57.019531 17.015625 57.027344 17.054688 57.039062 17.089844 C 57.105469 17.316406 57.152344 17.546875 57.152344 17.785156 C 57.152344 18.390625 56.925781 18.9375 56.566406 19.367188 C 56.566406 19.371094 56.5625 19.371094 56.5625 19.371094 C 56.324219 19.65625 56.03125 19.878906 55.710938 20.035156 C 55.707031 20.035156 55.703125 20.039062 55.699219 20.039062 C 55.550781 20.109375 55.394531 20.164062 55.234375 20.203125 C 55.21875 20.207031 55.203125 20.210938 55.1875 20.214844 C 55.015625 20.253906 54.835938 20.277344 54.65625 20.277344 L 35.910156 20.277344 C 35.730469 20.277344 35.550781 20.253906 35.378906 20.214844 C 35.363281 20.210938 35.347656 20.203125 35.328125 20.199219 C 35.171875 20.160156 35.015625 20.109375 34.867188 20.039062 C 34.863281 20.039062 34.855469 20.035156 34.851562 20.03125 C 34.53125 19.878906 34.242188 19.65625 34.003906 19.371094 C 33.640625 18.9375 33.417969 18.390625 33.417969 17.785156 C 33.417969 17.546875 33.460938 17.316406 33.527344 17.089844 C 33.539062 17.054688 33.550781 17.015625 33.5625 16.980469 C 33.640625 16.753906 33.75 16.535156 33.894531 16.335938 C 34.347656 15.707031 35.078125 15.296875 35.910156 15.296875 L 39.585938 15.296875 C 39.792969 15.296875 39.988281 15.1875 40.09375 15.011719 Z M 11.25 34.425781 C 11.351562 34.40625 11.453125 34.390625 11.558594 34.367188 C 11.703125 34.328125 11.84375 34.28125 11.988281 34.226562 C 12.085938 34.191406 12.179688 34.164062 12.273438 34.121094 C 12.429688 34.050781 12.578125 33.964844 12.726562 33.875 C 12.804688 33.828125 12.882812 33.792969 12.957031 33.742188 C 13.179688 33.59375 13.390625 33.429688 13.589844 33.238281 C 13.777344 33.058594 13.949219 32.867188 14.101562 32.664062 C 14.136719 32.621094 14.160156 32.570312 14.195312 32.527344 C 14.308594 32.363281 14.417969 32.203125 14.507812 32.03125 C 14.527344 31.996094 14.539062 31.960938 14.554688 31.929688 C 14.648438 31.742188 14.730469 31.554688 14.792969 31.363281 C 14.796875 31.347656 14.800781 31.328125 14.804688 31.3125 C 14.863281 31.128906 14.914062 30.945312 14.945312 30.757812 C 14.945312 30.75 14.945312 30.738281 14.949219 30.730469 L 22.835938 39.007812 L 26.347656 42.6875 L 30.917969 47.484375 C 31.121094 47.699219 31.242188 47.976562 31.292969 48.289062 C 31.296875 48.296875 31.292969 48.300781 31.292969 48.3125 C 31.355469 48.710938 31.289062 49.140625 31.125 49.558594 C 31.117188 49.582031 31.105469 49.605469 31.09375 49.625 C 31.023438 49.796875 30.929688 49.964844 30.824219 50.125 C 30.792969 50.167969 30.769531 50.210938 30.738281 50.25 C 30.609375 50.433594 30.464844 50.609375 30.296875 50.769531 C 30.140625 50.917969 29.96875 51.039062 29.796875 51.152344 C 29.730469 51.195312 29.664062 51.238281 29.59375 51.277344 C 29.492188 51.335938 29.386719 51.378906 29.28125 51.425781 C 29.121094 51.496094 28.960938 51.550781 28.796875 51.585938 C 28.726562 51.605469 28.65625 51.625 28.585938 51.636719 C 28.484375 51.652344 28.382812 51.660156 28.28125 51.664062 C 28.140625 51.667969 28 51.667969 27.867188 51.644531 C 27.589844 51.601562 27.339844 51.507812 27.136719 51.347656 C 27.132812 51.34375 27.128906 51.34375 27.125 51.34375 C 27.078125 51.304688 27.023438 51.273438 26.976562 51.226562 L 11.007812 34.46875 C 11.089844 34.460938 11.167969 34.4375 11.25 34.425781 Z M 9.460938 32.847656 C 8.71875 32.066406 8.996094 30.59375 10.082031 29.5625 C 10.703125 28.972656 11.472656 28.636719 12.195312 28.636719 C 12.539062 28.636719 13.03125 28.71875 13.402344 29.105469 C 13.488281 29.199219 13.5625 29.304688 13.621094 29.414062 C 13.65625 29.476562 13.675781 29.546875 13.699219 29.613281 C 13.71875 29.664062 13.742188 29.714844 13.757812 29.769531 C 13.78125 29.867188 13.792969 29.96875 13.800781 30.074219 C 13.804688 30.101562 13.808594 30.128906 13.8125 30.160156 C 13.8125 30.28125 13.804688 30.410156 13.785156 30.539062 C 13.785156 30.554688 13.785156 30.570312 13.78125 30.585938 C 13.757812 30.742188 13.71875 30.894531 13.664062 31.046875 C 13.664062 31.054688 13.664062 31.058594 13.660156 31.066406 C 13.609375 31.207031 13.542969 31.347656 13.472656 31.484375 C 13.460938 31.503906 13.457031 31.519531 13.445312 31.539062 C 13.375 31.664062 13.289062 31.789062 13.199219 31.90625 C 13.183594 31.933594 13.167969 31.957031 13.148438 31.984375 C 13.039062 32.125 12.914062 32.261719 12.777344 32.390625 C 12.160156 32.976562 11.390625 33.316406 10.667969 33.316406 C 10.320312 33.316406 9.832031 33.234375 9.460938 32.847656 Z M 67.304688 14.234375 L 57.929688 14.234375 C 57.042969 13.421875 55.875 12.953125 54.65625 12.953125 L 53.4375 12.953125 C 53.511719 12.519531 53.550781 12.078125 53.550781 11.636719 C 53.550781 7.085938 49.839844 3.386719 45.285156 3.386719 C 40.726562 3.386719 37.019531 7.085938 37.019531 11.636719 C 37.019531 12.078125 37.054688 12.519531 37.128906 12.953125 L 35.910156 12.953125 C 34.691406 12.953125 33.523438 13.421875 32.636719 14.234375 L 23.265625 14.234375 C 22.292969 14.234375 21.503906 15.019531 21.503906 15.992188 L 21.503906 34.207031 L 15.101562 27.492188 C 14.367188 26.71875 13.332031 26.292969 12.195312 26.292969 C 10.875 26.292969 9.515625 26.867188 8.464844 27.863281 C 6.40625 29.816406 6.097656 32.714844 7.761719 34.460938 L 21.503906 48.878906 L 21.503906 69.882812 C 21.503906 70.851562 22.292969 71.640625 23.265625 71.640625 L 67.304688 71.640625 C 68.277344 71.640625 69.0625 70.851562 69.0625 69.882812 L 69.0625 15.992188 C 69.0625 15.019531 68.277344 14.234375 67.304688 14.234375 " fill-opacity="1" fill-rule="nonzero"/></g></svg>